<svg viewBox="0 0 33 11" xmlns="http://www.w3.org/2000/svg">
  <path d="M33 4.13027L33 6.86957L30.2767 6.86957L30.2767 8.26055L27.5744 8.26055L27.5744 9.6302L24.8511 9.6302L24.8511 11L22.1489 11L22.1489 6.86965L14 6.86965L14 4.13035L22.1489 4.13035L22.1489 1.29398e-07L24.8511 9.71745e-08L24.8511 1.3698L27.5744 1.3698L27.5744 2.73945L30.2767 2.73945L30.2767 4.13043L33 4.13027Z" />
  <path d="M4.9253e-08 6.86973L8.19188e-08 4.13043L2.72326 4.13043L2.72326 2.73945L5.42563 2.73945L5.42563 1.3698L8.14889 1.3698L8.14889 9.71745e-08L10.8511 1.29398e-07L10.8511 4.13035L19 4.13035L19 6.86965L10.8511 6.86965L10.8511 11L8.14889 11L8.14889 9.6302L5.42563 9.6302L5.42563 8.26055L2.72326 8.26055L2.72326 6.86957L4.9253e-08 6.86973Z" />
</svg>
