<svg viewBox="0 0 11 10" fill="none" xmlns="http://www.w3.org/2000/svg">
<path d="M6.62414 3.54077H4.67872V4.0271H4.19238V5.97253H4.67872V6.45886H6.62414V5.97253H7.11047V4.0271H6.62414V3.54077ZM6.13776 5.48615H5.16509V4.51348H6.13776V5.48615Z" />
<path d="M10.0277 3.54089V2.56819H9.54141V2.08185H9.05507V1.5955H8.08236V0.622803H3.21887V1.5955H2.24618V2.08185H1.75983V2.56819H1.27348V3.54089H0.300781V6.45898H1.27348V7.43169H1.75983V7.91803H2.24618V8.40436H3.21887V9.37707H8.08236V8.40436H9.05507V7.91803H9.54141V7.43169H10.0277V6.45898H11.0005V3.54089H10.0277ZM10.0277 5.48627H9.05507V6.45898H8.5687V6.94532H8.08236V7.43169H7.10965V8.40436H4.19157V7.43169H3.21887V6.94532H2.73252V6.45898H2.24618V5.48627H1.27348V4.5136H2.24618V4.02723V3.54089H2.73252V3.05455H3.21887V2.56819H4.19157V1.5955H7.10965V2.56819H8.08236V3.05455H8.5687V3.54089H9.05507V4.5136H10.0277V5.48627Z" />
</svg>
