<svg viewBox="0 0 28 28" fill="none" xmlns="http://www.w3.org/2000/svg">
<rect width="16" height="16" transform="translate(6 6)" fill="#1F1F1F"/>
<g filter="url(#filter0_d_2306_928)">
<path d="M15 8H13V10H15V8Z" fill="#F3DB00"/>
<path d="M15 12H13V20H15V12Z" fill="#F3DB00"/>
<path d="M23 7V6H22V5H21V4H7V5H6V6H5V7H4V21H5V22H6V23H7V24H21V23H22V22H23V21H24V7H23ZM22 19H21V20H20V21H19V22H9V21H8V20H7V19H6V9H7V8H8V7H9V6H19V7H20V8H21V9H22V19Z" fill="#F3DB00"/>
</g>
<defs>
<filter id="filter0_d_2306_928" x="0" y="0" width="28" height="28" filterUnits="userSpaceOnUse" color-interpolation-filters="sRGB">
<feFlood flood-opacity="0" result="BackgroundImageFix"/>
<feColorMatrix in="SourceAlpha" type="matrix" values="0 0 0 0 0 0 0 0 0 0 0 0 0 0 0 0 0 0 127 0" result="hardAlpha"/>
<feOffset/>
<feGaussianBlur stdDeviation="2"/>
<feComposite in2="hardAlpha" operator="out"/>
<feColorMatrix type="matrix" values="0 0 0 0 0 0 0 0 0 0 0 0 0 0 0 0 0 0 0.75 0"/>
<feBlend mode="normal" in2="BackgroundImageFix" result="effect1_dropShadow_2306_928"/>
<feBlend mode="normal" in="SourceGraphic" in2="effect1_dropShadow_2306_928" result="shape"/>
</filter>
</defs>
</svg>
