<svg viewBox="0 0 16 16" xmlns="http://www.w3.org/2000/svg">
<path d="M15.2 0.799997V0H10.4V0.799997H9.59998V3.2H8.80001V4.8H7.19999V5.6H5.6V4.8H0.800004V5.6H0V10.4H0.800004V11.2H5.6V10.4H7.19999V11.2H8.80001V12.8H9.59998V15.2H10.4V16H15.2V15.2H16V10.4H15.2V9.59998H11.2V10.4H10.4V9.59998H8.80001V8.8H7.99996V7.19998H8.80001V6.4H10.4V5.6H11.2V6.4H15.2V5.6H16V0.799997H15.2ZM14.4 3.99999H13.6V4.8H12V3.99999H11.2V2.4H12V1.59999H13.6V2.4H14.4V3.99999ZM4 8.8V9.59998H2.4V8.8H1.6V7.19998H2.4V6.4H4V7.19998H4.79999V8.8H4ZM12 11.2H13.6V12H14.4V13.6H13.6V14.4H12V13.6H11.2V12H12V11.2Z" />
</svg>
