<svg viewBox="0 0 24 28"  xmlns="http://www.w3.org/2000/svg">
  <path fill-rule="evenodd" clip-rule="evenodd" d="M2.76923 0.466667V0.933333H2.30769H1.84615V1.4V1.86667H1.38462H0.923077V2.8V3.73333H1.38462H1.84615V4.2V4.66667H2.76923H3.69231V5.13333V5.6H5.53846H7.38462V5.13333V4.66667H8.76923H10.1538V6.06667V7.46667H6.92308H3.69231V7.93333V8.4H3.23077H2.76923V8.86667V9.33333H2.30769H1.84615V9.8V10.2667H1.38462H0.923077V10.7333V11.2H0.461538H0V14.4667V17.7333H0.461538H0.923077V18.6667V19.6H1.38462H1.84615V21V22.4H2.30769H2.76923V22.8667V23.3333H3.23077H3.69231V24.2667V25.2H4.15385H4.61538V25.6667V26.1333H5.07692H5.53846V26.6V27.0667H6H6.46154V27.5333V28H8.30769H10.1538V27.5333V27.0667H12H13.8462V27.5333V28H15.6923H17.5385V27.5333V27.0667H18H18.4615V26.6V26.1333H18.9231H19.3846V25.6667V25.2H19.8462H20.3077V24.2667V23.3333H20.7692H21.2308V22.4V21.4667H21.6923H22.1538V20.5333V19.6H22.6154H23.0769V18.2V16.8H23.5385H24V14V11.2H23.5385H23.0769V10.7333V10.2667H22.6154H22.1538V9.8V9.33333H21.6923H21.2308V8.86667V8.4H20.3077H19.3846V7.93333V7.46667H16.6154H13.8462V7.93333V8.4H13.3846H12.9231V4.66667V0.933333H11.5385H10.1538V1.86667V2.8H9.69231H9.23077V2.33333V1.86667H8.30769H7.38462V1.4V0.933333H6.46154H5.53846V0.466667V0H4.15385H2.76923V0.466667Z"/>
</svg>
